<svg width="800" height="600" xmlns="http://www.w3.org/2000/svg" xmlns:svg="http://www.w3.org/2000/svg" version="1.1" xml:space="preserve">
 <desc>Created with Fabric.js 5.2.4</desc>
 <g class="layer">
  <title>Layer 1</title>
  <g id="svg_1">
   <g id="ced6191b-a557-4660-b228-f336e831ab90" transform="matrix(0.884634 0 0 0.884634 479.926 545.98)"/>
   <g id="svg_2" transform="matrix(0.672322 0 0 0.672322 478.882 422.697)">
    <path d="m-118.14,-353.37l41,0l46,1l45,3l31,4l54,11l18,5l14,7l13,0l11,2l9,3l8,6l8,9l10,14l28,42l8,13l12,21l15,29l2,3l11,-2l20,-3l26,0l15,2l16,5l14,7l10,9l6,9l1,7l-3,10l-8,9l-11,6l-16,6l-20,4l-26,3l-10,0l7,8l13,15l12,14l7,7l9,11l12,13l7,8l12,14l11,12l6,8l0,3l-229,38l-110,18l-16,3l3,9l5,14l-1,1l-258,0l-2,-2l9,-22l-22,-3l-324,-54l-4,-1l2,-5l8,-10l10,-11l9,-11l7,-7l9,-11l11,-12l9,-11l14,-15l9,-11l7,-8l1,-2l-22,-1l-20,-3l-17,-4l-15,-6l-9,-6l-7,-8l-2,-4l0,-12l4,-8l5,-6l10,-7l16,-7l16,-4l8,-1l27,0l21,3l12,3l2,-6l17,-33l15,-25l16,-25l13,-18l12,-17l9,-10l10,-6l14,-3l13,0l8,-3l8,-4l22,-6l35,-7l21,-4l35,-4l32,-2l50,-1z" fill="rgb(59,59,60)" fill-rule="nonzero" id="svg_3" stroke-dashoffset="0" stroke-miterlimit="4" transform="translate(-19.5 -220.5)"/>
   </g>
   <g id="svg_4" transform="matrix(0.672322 0 0 0.672322 481.208 384.684)">
    <path d="m-118.14,-353.37l27,0l112,5l66,3l26,1l13,0l209,-9l22,0l12,4l10,7l9,10l14,19l7,10l10,15l9,15l13,23l13,26l15,34l-1,4l-144,8l-184,10l-39,0l-296,-16l-33,-2l-1,-5l7,-15l11,-25l10,-19l13,-24l15,-23l13,-19l13,-17l9,-10l10,-7l10,-3z" fill="rgb(254,255,254)" fill-rule="nonzero" id="svg_5" stroke-dashoffset="0" stroke-miterlimit="4" transform="translate(-238 -92.5)"/>
   </g>
   <g id="svg_6" transform="matrix(0.672322 0 0 0.672322 706.525 627.853)">
    <path d="m-118.14,-353.37l2,0l3,12l7,36l4,30l2,25l0,61l-3,32l-5,32l-8,36l-3,9l-1,1l-170,-5l-60,-2l-8,-1l-13,-33l-14,-36l-22,-56l-19,-48l-14,-36l-1,-3l7,-2l157,-26l152,-25l7,-1z" fill="rgb(59,59,60)" fill-rule="nonzero" id="svg_7" stroke-dashoffset="0" stroke-miterlimit="4" transform="translate(152.5 -137)"/>
   </g>
   <g id="svg_8" transform="matrix(0.672322 0 0 0.672322 250.973 628.516)">
    <path d="m-118.14,-353.37l13,1l294,49l9,1l1,3l-6,17l-15,38l-16,41l-14,36l-11,28l-16,41l-4,9l-2,1l-53,2l-166,5l-11,0l-3,-9l-8,-35l-5,-33l-3,-31l-1,-17l0,-36l2,-31l5,-36l9,-43l1,-1z" fill="rgb(0,0,0)" fill-rule="nonzero" id="svg_9" stroke-dashoffset="0" stroke-miterlimit="4" transform="translate(-150 -136)"/>
   </g>
   <g id="svg_10" transform="matrix(0.672322 0 0 0.672322 462.755 698.606)">
    <path d="m-118.14,-353.37l2,1l-5,5l-10,8l-11,9l-14,12l-11,9l-11,10l-8,7l-7,9l-4,9l-1,4l0,10l4,13l6,9l1,3l16,8l3,1l18,0l12,-5l11,-7l22,-15l16,-11l15,-10l5,-1l14,12l11,9l17,14l13,11l14,11l10,9l14,11l13,11l11,9l13,11l10,8l6,7l3,8l-1,7l-4,8l-7,6l-6,2l-10,-1l-7,-4l-14,-12l-10,-8l-11,-9l-17,-14l-13,-11l-14,-11l-10,-8l-7,-2l-5,3l-2,4l1,5l7,8l12,10l14,11l9,8l44,36l10,10l3,5l0,12l-4,7l-7,6l-5,2l-9,0l-8,-4l-10,-8l-13,-11l-10,-8l-14,-12l-10,-8l-14,-12l-14,-11l-3,-2l-6,1l-4,4l-1,6l4,6l11,10l13,10l14,12l16,13l13,11l8,8l3,6l0,12l-6,9l-10,5l-10,0l-8,-4l-16,-13l-10,-8l-4,-7l-3,-9l-6,-8l-7,-6l-11,-4l-9,-1l-1,-1l-3,-16l-3,-9l-4,-8l-6,-5l-8,-4l-5,-1l-18,-1l-3,-14l-6,-10l-9,-8l-11,-4l-16,0l-11,4l-5,2l-2,-2l-3,-8l-9,-10l-11,-6l-6,-1l-12,0l-12,4l-11,9l-9,11l-11,14l-3,-1l-10,-18l-5,-10l1,-9l12,-33l22,-58l24,-62l144,-1z" fill="rgb(0,0,0)" fill-rule="nonzero" id="svg_11" stroke-dashoffset="0" stroke-miterlimit="4" transform="translate(2.5 -158)"/>
   </g>
   <g id="svg_12" transform="matrix(0.672322 0 0 0.672322 525.794 656.957)">
    <path d="m-118.14,-353.37l124,0l5,12l32,82l14,36l9,23l1,7l-8,16l-9,14l-3,0l-11,-10l-10,-8l-17,-14l-13,-11l-10,-8l-13,-11l-11,-9l-12,-10l-11,-9l-13,-11l-14,-11l-13,-11l-10,-7l-8,-3l-8,1l-16,9l-17,12l-18,13l-17,11l-8,4l-12,0l-6,-4l-6,-7l-1,-3l0,-11l3,-6l5,-6l10,-8l11,-9l13,-11l14,-11l13,-11l14,-11l12,-6l15,-3z" fill="rgb(59,59,60)" fill-rule="nonzero" id="svg_13" stroke-dashoffset="0" stroke-miterlimit="4" transform="translate(-37.5 -95)"/>
   </g>
   <g id="svg_14" transform="matrix(0.672322 0 0 0.672322 724.677 691.652)">
    <path d="m-118.14,-353.37l1,0l0,10l-5,30l-7,31l-3,9l-1,1l-170,-5l-60,-2l-8,-1l-13,-33l-11,-28l0,-4l6,2l64,1l2,6l5,14l5,8l0,2l5,2l9,5l9,3l14,1l10,-2l9,-5l9,-7l7,-14l3,-13l113,-1l5,-9l2,-1z" fill="rgb(43,44,44)" fill-rule="nonzero" id="svg_15" stroke-dashoffset="0" stroke-miterlimit="4" transform="translate(138 -40.5)"/>
   </g>
   <g id="svg_16" transform="matrix(0.672322 0 0 0.672322 232.803 695.288)">
    <path d="m-118.14,-353.37l44,0l3,14l6,12l5,6l11,7l12,3l13,0l12,-3l5,-1l0,-2l5,-4l10,-14l6,-16l7,-1l51,-1l5,2l0,2l2,0l1,-2l-1,8l-10,25l-10,26l-3,2l-53,2l-166,5l-11,0l-3,-9l-8,-35l-3,-18l0,-7l4,4l6,-4l60,-1z" fill="rgb(59,59,60)" fill-rule="nonzero" id="svg_17" stroke="rgb(98,98,98)" stroke-dashoffset="0" stroke-miterlimit="4" transform="translate(-64 -35)"/>
   </g>
   <g id="svg_18" transform="matrix(0.672322 0 0 0.672322 404.891 747.968)">
    <path d="m-118.14,-353.37l9,0l8,4l5,6l2,4l0,10l-4,8l-33,42l-5,4l-6,2l-7,0l-8,-3l-7,-8l-2,-8l4,-11l24,-32l9,-11l6,-5l5,-2z" fill="rgb(59,59,60)" fill-rule="nonzero" id="svg_19" stroke-dashoffset="0" stroke-miterlimit="4" transform="translate(12 -40)"/>
   </g>
   <g id="svg_20" transform="matrix(0.672322 0 0 0.672322 707.109 671.615)">
    <path d="m-118.14,-353.37l10,0l10,3l9,7l6,9l2,6l0,13l-4,10l-9,10l-8,4l-3,1l-15,0l-10,-4l-7,-6l-6,-10l-1,-4l0,-15l6,-12l9,-8l11,-4z" fill="rgb(254,255,254)" fill-rule="nonzero" id="svg_21" stroke-dashoffset="0" stroke-miterlimit="4" transform="translate(-5.5 -31.5)"/>
   </g>
   <g id="svg_22" transform="matrix(0.672322 0 0 0.672322 247.585 672.27)">
    <path d="m-118.14,-353.37l14,0l10,4l8,7l6,12l1,4l0,9l-4,11l-6,8l-8,5l-11,3l-7,0l-10,-3l-6,-4l-8,-9l-3,-9l-1,-10l3,-10l5,-8l7,-6l10,-4z" fill="rgb(254,255,254)" fill-rule="nonzero" id="svg_23" stroke-dashoffset="0" stroke-miterlimit="4" transform="translate(-7 -31.5)"/>
   </g>
   <g id="svg_24" transform="matrix(0.672322 0 0 0.672322 437.207 771.614)">
    <path d="m-118.14,-353.37l12,0l8,5l6,9l0,9l-5,9l-14,18l-10,13l-9,10l-6,4l-10,0l-9,-4l-5,-6l-1,-3l0,-12l7,-12l9,-11l9,-12l8,-10l7,-6l3,-1z" fill="rgb(60,60,61)" fill-rule="nonzero" id="svg_25" stroke-dashoffset="0" stroke-miterlimit="4" transform="translate(8.5 -38.5)"/>
   </g>
   <g id="svg_26" transform="matrix(0.672322 0 0 0.672322 369.205 730.276)">
    <path d="m-118.14,-353.37l9,1l7,4l5,7l1,3l0,11l-5,8l-10,13l-11,14l-8,6l-8,2l-10,-3l-5,-5l-3,-4l-1,-3l0,-10l4,-8l13,-17l10,-13l5,-4l7,-2z" fill="rgb(60,60,61)" fill-rule="nonzero" id="svg_27" stroke-dashoffset="0" stroke-miterlimit="4" transform="translate(8.5 -34.5)"/>
   </g>
   <g id="svg_28" transform="matrix(0.672322 0 0 0.672322 467.833 796.57)">
    <path d="m-118.14,-353.37l9,0l9,4l6,8l1,4l0,7l-3,8l-16,21l-9,8l-9,2l-10,-3l-6,-5l-3,-5l-1,-4l0,-7l5,-10l13,-17l7,-8l7,-3z" fill="rgb(59,59,60)" fill-rule="nonzero" id="svg_29" stroke-dashoffset="0" stroke-miterlimit="4" transform="translate(3.5 -31)"/>
   </g>
   <g id="svg_30" transform="matrix(0.672322 0 0 0.672322 797.394 695.952)">
    <path d="m-118.14,-353.37l1,0l0,11l-6,30l-6,24l-2,3l-39,-1l-1,-2l33,-1l1,-2l0,2l2,0l0,-3l2,0l0,-5l1,-3l4,-20l4,-18l3,-6l2,-3l1,-6z" fill="rgb(35,34,35)" fill-rule="nonzero" id="svg_31" stroke-dashoffset="0" stroke-miterlimit="4" transform="translate(26 -34)"/>
   </g>
   <g id="svg_32" transform="matrix(0.672322 0 0 0.672322 728.304 672.535)">
    <path d="m-118.14,-353.37l4,0l2,3l2,10l0,12l-4,7l-4,2l-1,-4l3,-8l0,-13l-2,-9z" fill="rgb(45,46,46)" fill-rule="nonzero" id="svg_33" stroke-dashoffset="0" stroke-miterlimit="4" transform="translate(-3.5 -17)"/>
   </g>
   <g id="svg_34" transform="matrix(0.672322 0 0 0.672322 250.903 714.441)">
    <path d="m-118.14,-353.37l16,0l3,1l12,1l0,1l-31,1l-27,0l0,-1l15,-1l12,-2z" fill="rgb(59,59,60)" fill-rule="nonzero" id="svg_35" stroke-dashoffset="0" stroke-miterlimit="4" transform="translate(-2 -2)"/>
   </g>
   <g id="svg_36" transform="matrix(0.672322 0 0 0.672322 545.052 664.149)">
    <path d="m-118.14,-353.37l4,2l7,5l4,0l0,3l2,1l2,4l-4,-1l-15,-12l0,-2z" fill="rgb(46,47,47)" fill-rule="nonzero" id="svg_37" stroke-dashoffset="0" stroke-miterlimit="4" transform="translate(-9.5 -7.5)"/>
   </g>
   <g id="svg_38" transform="matrix(0.672322 0 0 0.672322 154.124 713.795)">
    <path d="m-118.14,-353.37l7,6l-3,5l-5,1l1,-12z" fill="rgb(59,59,60)" fill-rule="nonzero" id="svg_39" stroke-dashoffset="0" stroke-miterlimit="4" transform="translate(-3 -6)"/>
   </g>
   <g id="svg_44" transform="matrix(0.672322 0 0 0.672322 563.028 678.808)">
    <path d="m-118.14,-353.37l5,5l2,4l3,1l0,2l2,1l-4,-1l-11,-9l0,-2l3,-1z" fill="rgb(47,48,48)" fill-rule="nonzero" id="svg_45" stroke-dashoffset="0" stroke-miterlimit="4" transform="translate(-4.5 -6.5)"/>
   </g>
   <g id="svg_48" transform="matrix(0.672322 0 0 0.672322 686.647 679.807)">
    <path d="m-118.14,-353.37l3,2l4,10l-1,2l-4,-2l-3,-6l1,-6z" fill="rgb(46,47,47)" fill-rule="nonzero" id="svg_49" stroke-dashoffset="0" stroke-miterlimit="4" transform="translate(-3 -7)"/>
   </g>
   <g id="svg_54" transform="matrix(0.672322 0 0 0.672322 542.363 662.468)">
    <path d="m-118.14,-353.37l4,2l7,6l-1,2l-10,-8l0,-2z" fill="rgb(48,49,49)" fill-rule="nonzero" id="svg_55" stroke-dashoffset="0" stroke-miterlimit="4" transform="translate(-5.5 -5)"/>
   </g>
  </g>
 </g>
</svg>